<svg width="69" height="77" viewBox="0 0 69 77" fill="none" xmlns="http://www.w3.org/2000/svg">
<path d="M37.7031 74.9219C42.4531 74.9219 47.3125 73.8438 52.2812 71.6875C57.2812 69.5 61.2344 66.2969 64.1406 62.0781C64.1406 61.6719 63.9531 61.3281 63.5781 61.0469C63.2344 60.7656 62.8438 60.625 62.4062 60.625C57.7188 66.3125 50.8281 69.1562 41.7344 69.1562C32.1406 69.1562 24.8906 66.2656 19.9844 60.4844C15.1094 54.6719 12.6719 47.4531 12.6719 38.8281C12.6719 34.9219 13.0938 31.1562 13.9375 27.5312C14.8125 23.875 16.1562 20.3906 17.9688 17.0781C19.8125 13.7344 22.4219 11.0312 25.7969 8.96875C29.2031 6.90625 33.1719 5.875 37.7031 5.875C40.7969 5.875 43.6562 6.35937 46.2812 7.32812C48.9062 8.29688 51.0625 9.4375 52.75 10.75C54.4375 12.0625 56.0781 13.8281 57.6719 16.0469C59.2969 18.2344 60.5156 20.1406 61.3281 21.7656C62.1719 23.3594 63.1719 25.3906 64.3281 27.8594C65.2656 27.7344 65.8438 27.3906 66.0625 26.8281C63.75 17.5469 60.25 11.1875 55.5625 7.75C50.9062 4.28125 44.9531 2.54688 37.7031 2.54688C34.7656 2.54688 31.7656 2.90625 28.7031 3.625C25.6406 4.3125 22.4844 5.5625 19.2344 7.375C16.0156 9.15625 13.1719 11.375 10.7031 14.0312C8.23438 16.6562 6.20312 20.125 4.60938 24.4375C3.01562 28.7188 2.21875 33.5156 2.21875 38.8281C2.21875 44.1406 3.01562 48.9375 4.60938 53.2188C6.20312 57.5 8.23438 60.9531 10.7031 63.5781C13.1719 66.2031 16.0156 68.4062 19.2344 70.1875C22.4844 71.9375 25.6406 73.1562 28.7031 73.8438C31.7656 74.5625 34.7656 74.9219 37.7031 74.9219ZM63.1562 29.9688C61.8125 26.9688 60.5781 24.5 59.4531 22.5625C58.3281 20.5938 56.8281 18.4062 54.9531 16C53.0781 13.5625 50.8438 11.6719 48.25 10.3281C45.6562 8.98438 42.75 8.17188 39.5312 7.89062C35.9688 8.17188 32.8594 9.3125 30.2031 11.3125C27.5469 13.2812 25.4844 15.8125 24.0156 18.9062C22.5781 22 21.5156 25.2188 20.8281 28.5625C20.1719 31.875 19.8438 35.2969 19.8438 38.8281C19.8438 46.7031 21.8281 53.3125 25.7969 58.6562C29.7656 64 35.6875 66.8594 43.5625 67.2344C51.1875 66.8594 57.1719 64.0156 61.5156 58.7031C62.7344 58.7031 63.7969 59.1094 64.7031 59.9219C65.6094 60.7031 66.0625 61.6406 66.0625 62.7344C62.9062 67.3281 58.6406 70.8281 53.2656 73.2344C47.8906 75.6406 42.7031 76.8438 37.7031 76.8438C34.5781 76.8438 31.4062 76.4688 28.1875 75.7188C25 75 21.6875 73.7188 18.25 71.875C14.8438 70 11.8281 67.6719 9.20312 64.8906C6.57812 62.1094 4.4375 58.4688 2.78125 53.9688C1.125 49.4375 0.296875 44.3906 0.296875 38.8281C0.296875 33.0156 1.15625 27.8281 2.875 23.2656C4.59375 18.6719 6.79688 15 9.48438 12.25C12.1719 9.5 15.3125 7.21875 18.9062 5.40625C22.5 3.5625 25.9844 2.3125 29.3594 1.65625C32.7656 0.96875 36.1875 0.625 39.625 0.625C44.3125 0.625 49.4062 1.25 54.9062 2.5C60.4062 3.75 64.3438 4.53125 66.7188 4.84375C65.6875 8.875 65.2812 12.4219 65.5 15.4844C65.7188 18.5156 66.6094 22.2344 68.1719 26.6406C67.2656 28.4844 65.5938 29.5938 63.1562 29.9688Z" fill="black"/>
</svg>
